<svg xmlns="http://www.w3.org/2000/svg" version="1.1" xmlns:xlink="http://www.w3.org/1999/xlink" xmlns:svgjs="http://svgjs.com/svgjs" width="512" height="512" x="0" y="0" viewBox="0 0 46 46" style="enable-background:new 0 0 512 512" xml:space="preserve" class=""><g><circle xmlns="http://www.w3.org/2000/svg" cx="32.5" cy="13.5" fill="#4e00ca" r="6.5" data-original="#ff9933" class=""></circle><rect xmlns="http://www.w3.org/2000/svg" fill="#4e00ca" height="2" rx="1" width="5" x="29" y="32" data-original="#ff9933" class=""></rect><path xmlns="http://www.w3.org/2000/svg" d="m14.5 7a7.5 7.5 0 1 0 7.5 7.5 7.5 7.5 0 0 0 -7.5-7.5zm0 13a5.5 5.5 0 1 1 5.5-5.5 5.51 5.51 0 0 1 -5.5 5.5z" fill="#000000" data-original="#000000" class=""></path><path xmlns="http://www.w3.org/2000/svg" d="m33 10h-6a3 3 0 0 0 -3 3v9h9a3 3 0 0 0 3-3v-6a3 3 0 0 0 -3-3zm1 9a1 1 0 0 1 -1 1h-7v-7a1 1 0 0 1 1-1h6a1 1 0 0 1 1 1z" fill="#000000" data-original="#000000" class=""></path><path xmlns="http://www.w3.org/2000/svg" d="m12.54 24a2.54 2.54 0 0 0 -2.54 2.54v6.92a2.54 2.54 0 0 0 2.54 2.54h6.92a2.54 2.54 0 0 0 2.54-2.54v-9.46zm7.46 9.46a.54.54 0 0 1 -.54.54h-6.92a.54.54 0 0 1 -.54-.54v-6.92a.54.54 0 0 1 .54-.54h7.46z" fill="#000000" data-original="#000000" class=""></path><path xmlns="http://www.w3.org/2000/svg" d="m36 24h-12v12a3 3 0 0 0 3 3h9a3 3 0 0 0 3-3v-9a3 3 0 0 0 -3-3zm1 12a1 1 0 0 1 -1 1h-9a1 1 0 0 1 -1-1v-10h10a1 1 0 0 1 1 1z" fill="#000000" data-original="#000000" class=""></path></g></svg>