<svg xmlns="http://www.w3.org/2000/svg" version="1.1" xmlns:xlink="http://www.w3.org/1999/xlink" xmlns:svgjs="http://svgjs.com/svgjs" width="500" height="150" preserveAspectRatio="none" viewBox="0 0 500 150">
    <g mask="url(&quot;#SvgjsMask1072&quot;)" fill="none">
        <rect width="500" height="150" x="0" y="0" fill="rgba(255, 255, 255, 1)"></rect>
        <path d="M-43.27 169.43L-43.27 169.43" stroke="rgba(169, 169, 169, 0.17)" stroke-width="1.5"></path>
        <path d="M-43.27 169.43L-41.35 215.11" stroke="rgba(169, 169, 169, 0.17)" stroke-width="1.5"></path>
        <path d="M-43.27 169.43L27.57 158.73" stroke="rgba(169, 169, 169, 0.17)" stroke-width="1.5"></path>
        <path d="M-41.35 215.11L-41.35 215.11" stroke="rgba(169, 169, 169, 0.17)" stroke-width="1.5"></path>
        <path d="M-41.35 215.11L33.95 210.59" stroke="rgba(169, 169, 169, 0.17)" stroke-width="1.5"></path>
        <path d="M-41.35 215.11L27.57 158.73" stroke="rgba(169, 169, 169, 0.17)" stroke-width="1.5"></path>
        <path d="M27.57 158.73L27.57 158.73" stroke="rgba(169, 169, 169, 0.17)" stroke-width="1.5"></path>
        <path d="M27.57 158.73L33.95 210.59" stroke="rgba(169, 169, 169, 0.17)" stroke-width="1.5"></path>
        <path d="M27.57 158.73L103.35 160.99" stroke="rgba(169, 169, 169, 0.17)" stroke-width="1.5"></path>
        <path d="M27.57 158.73L88.21 205.83" stroke="rgba(169, 169, 169, 0.17)" stroke-width="1.5"></path>
        <path d="M33.95 210.59L33.95 210.59" stroke="rgba(169, 169, 169, 0.17)" stroke-width="1.5"></path>
        <path d="M33.95 210.59L88.21 205.83" stroke="rgba(169, 169, 169, 0.17)" stroke-width="1.5"></path>
        <path d="M33.95 210.59L103.35 160.99" stroke="rgba(169, 169, 169, 0.17)" stroke-width="1.5"></path>
        <path d="M33.95 210.59L-43.27 169.43" stroke="rgba(169, 169, 169, 0.17)" stroke-width="1.5"></path>
        <path d="M103.35 160.99L103.35 160.99" stroke="rgba(169, 169, 169, 0.17)" stroke-width="1.5"></path>
        <path d="M103.35 160.99L88.21 205.83" stroke="rgba(169, 169, 169, 0.17)" stroke-width="1.5"></path>
        <path d="M103.35 160.99L166.98 171.55" stroke="rgba(169, 169, 169, 0.17)" stroke-width="1.5"></path>
        <path d="M88.21 205.83L88.21 205.83" stroke="rgba(169, 169, 169, 0.17)" stroke-width="1.5"></path>
        <path d="M158.13 85.93L158.13 85.93" stroke="rgba(169, 169, 169, 0.17)" stroke-width="1.5"></path>
        <path d="M158.13 85.93L233.13 102.53" stroke="rgba(169, 169, 169, 0.17)" stroke-width="1.5"></path>
        <path d="M158.13 85.93L166.98 171.55" stroke="rgba(169, 169, 169, 0.17)" stroke-width="1.5"></path>
        <path d="M158.13 85.93L103.35 160.99" stroke="rgba(169, 169, 169, 0.17)" stroke-width="1.5"></path>
        <path d="M158.13 85.93L285.53 78.33" stroke="rgba(169, 169, 169, 0.17)" stroke-width="1.5"></path>
        <path d="M158.13 85.93L159.88 224.43" stroke="rgba(169, 169, 169, 0.17)" stroke-width="1.5"></path>
        <path d="M158.13 85.93L88.21 205.83" stroke="rgba(169, 169, 169, 0.17)" stroke-width="1.5"></path>
        <path d="M166.98 171.55L166.98 171.55" stroke="rgba(169, 169, 169, 0.17)" stroke-width="1.5"></path>
        <path d="M166.98 171.55L159.88 224.43" stroke="rgba(169, 169, 169, 0.17)" stroke-width="1.5"></path>
        <path d="M159.88 224.43L159.88 224.43" stroke="rgba(169, 169, 169, 0.17)" stroke-width="1.5"></path>
        <path d="M159.88 224.43L203.66 219.71" stroke="rgba(169, 169, 169, 0.17)" stroke-width="1.5"></path>
        <path d="M159.88 224.43L88.21 205.83" stroke="rgba(169, 169, 169, 0.17)" stroke-width="1.5"></path>
        <path d="M159.88 224.43L103.35 160.99" stroke="rgba(169, 169, 169, 0.17)" stroke-width="1.5"></path>
        <path d="M233.13 102.53L233.13 102.53" stroke="rgba(169, 169, 169, 0.17)" stroke-width="1.5"></path>
        <path d="M233.13 102.53L285.53 78.33" stroke="rgba(169, 169, 169, 0.17)" stroke-width="1.5"></path>
        <path d="M233.13 102.53L289.1 158.8" stroke="rgba(169, 169, 169, 0.17)" stroke-width="1.5"></path>
        <path d="M233.13 102.53L166.98 171.55" stroke="rgba(169, 169, 169, 0.17)" stroke-width="1.5"></path>
        <path d="M233.13 102.53L340.38 140.86" stroke="rgba(169, 169, 169, 0.17)" stroke-width="1.5"></path>
        <path d="M233.13 102.53L351.27 83.73" stroke="rgba(169, 169, 169, 0.17)" stroke-width="1.5"></path>
        <path d="M203.66 219.71L203.66 219.71" stroke="rgba(169, 169, 169, 0.17)" stroke-width="1.5"></path>
        <path d="M203.66 219.71L166.98 171.55" stroke="rgba(169, 169, 169, 0.17)" stroke-width="1.5"></path>
        <path d="M203.66 219.71L289.1 158.8" stroke="rgba(169, 169, 169, 0.17)" stroke-width="1.5"></path>
        <path d="M285.53 78.33L285.53 78.33" stroke="rgba(169, 169, 169, 0.17)" stroke-width="1.5"></path>
        <path d="M285.53 78.33L351.27 83.73" stroke="rgba(169, 169, 169, 0.17)" stroke-width="1.5"></path>
        <path d="M285.53 78.33L337.85 34.81" stroke="rgba(169, 169, 169, 0.17)" stroke-width="1.5"></path>
        <path d="M285.53 78.33L289.1 158.8" stroke="rgba(169, 169, 169, 0.17)" stroke-width="1.5"></path>
        <path d="M285.53 78.33L340.38 140.86" stroke="rgba(169, 169, 169, 0.17)" stroke-width="1.5"></path>
        <path d="M289.1 158.8L289.1 158.8" stroke="rgba(169, 169, 169, 0.17)" stroke-width="1.5"></path>
        <path d="M289.1 158.8L340.38 140.86" stroke="rgba(169, 169, 169, 0.17)" stroke-width="1.5"></path>
        <path d="M338.34 -46.85L338.34 -46.85" stroke="rgba(169, 169, 169, 0.17)" stroke-width="1.5"></path>
        <path d="M338.34 -46.85L337.85 34.81" stroke="rgba(169, 169, 169, 0.17)" stroke-width="1.5"></path>
        <path d="M338.34 -46.85L401.93 23.83" stroke="rgba(169, 169, 169, 0.17)" stroke-width="1.5"></path>
        <path d="M338.34 -46.85L351.27 83.73" stroke="rgba(169, 169, 169, 0.17)" stroke-width="1.5"></path>
        <path d="M337.85 34.81L337.85 34.81" stroke="rgba(169, 169, 169, 0.17)" stroke-width="1.5"></path>
        <path d="M337.85 34.81L351.27 83.73" stroke="rgba(169, 169, 169, 0.17)" stroke-width="1.5"></path>
        <path d="M337.85 34.81L401.93 23.83" stroke="rgba(169, 169, 169, 0.17)" stroke-width="1.5"></path>
        <path d="M337.85 34.81L401.56 93.53" stroke="rgba(169, 169, 169, 0.17)" stroke-width="1.5"></path>
        <path d="M351.27 83.73L351.27 83.73" stroke="rgba(169, 169, 169, 0.17)" stroke-width="1.5"></path>
        <path d="M340.38 140.86L340.38 140.86" stroke="rgba(169, 169, 169, 0.17)" stroke-width="1.5"></path>
        <path d="M340.38 140.86L351.27 83.73" stroke="rgba(169, 169, 169, 0.17)" stroke-width="1.5"></path>
        <path d="M401.93 23.83L401.93 23.83" stroke="rgba(169, 169, 169, 0.17)" stroke-width="1.5"></path>
        <path d="M401.93 23.83L461.73 43.15" stroke="rgba(169, 169, 169, 0.17)" stroke-width="1.5"></path>
        <path d="M401.93 23.83L401.56 93.53" stroke="rgba(169, 169, 169, 0.17)" stroke-width="1.5"></path>
        <path d="M401.93 23.83L351.27 83.73" stroke="rgba(169, 169, 169, 0.17)" stroke-width="1.5"></path>
        <path d="M401.93 23.83L476.85 82.31" stroke="rgba(169, 169, 169, 0.17)" stroke-width="1.5"></path>
        <path d="M401.56 93.53L401.56 93.53" stroke="rgba(169, 169, 169, 0.17)" stroke-width="1.5"></path>
        <path d="M401.56 93.53L351.27 83.73" stroke="rgba(169, 169, 169, 0.17)" stroke-width="1.5"></path>
        <path d="M401.56 93.53L399.09 164.27" stroke="rgba(169, 169, 169, 0.17)" stroke-width="1.5"></path>
        <path d="M401.56 93.53L476.85 82.31" stroke="rgba(169, 169, 169, 0.17)" stroke-width="1.5"></path>
        <path d="M399.09 164.27L399.09 164.27" stroke="rgba(169, 169, 169, 0.17)" stroke-width="1.5"></path>
        <path d="M399.09 164.27L414.61 217.72" stroke="rgba(169, 169, 169, 0.17)" stroke-width="1.5"></path>
        <path d="M399.09 164.27L340.38 140.86" stroke="rgba(169, 169, 169, 0.17)" stroke-width="1.5"></path>
        <path d="M399.09 164.27L467.6 153.36" stroke="rgba(169, 169, 169, 0.17)" stroke-width="1.5"></path>
        <path d="M399.09 164.27L351.27 83.73" stroke="rgba(169, 169, 169, 0.17)" stroke-width="1.5"></path>
        <path d="M414.61 217.72L414.61 217.72" stroke="rgba(169, 169, 169, 0.17)" stroke-width="1.5"></path>
        <path d="M414.61 217.72L468.53 233.53" stroke="rgba(169, 169, 169, 0.17)" stroke-width="1.5"></path>
        <path d="M414.61 217.72L467.6 153.36" stroke="rgba(169, 169, 169, 0.17)" stroke-width="1.5"></path>
        <path d="M474.01 -45.18L474.01 -45.18" stroke="rgba(169, 169, 169, 0.17)" stroke-width="1.5"></path>
        <path d="M474.01 -45.18L541.84 -22.43" stroke="rgba(169, 169, 169, 0.17)" stroke-width="1.5"></path>
        <path d="M474.01 -45.18L461.73 43.15" stroke="rgba(169, 169, 169, 0.17)" stroke-width="1.5"></path>
        <path d="M474.01 -45.18L401.93 23.83" stroke="rgba(169, 169, 169, 0.17)" stroke-width="1.5"></path>
        <path d="M474.01 -45.18L476.85 82.31" stroke="rgba(169, 169, 169, 0.17)" stroke-width="1.5"></path>
        <path d="M474.01 -45.18L338.34 -46.85" stroke="rgba(169, 169, 169, 0.17)" stroke-width="1.5"></path>
        <path d="M474.01 -45.18L516.11 85.98" stroke="rgba(169, 169, 169, 0.17)" stroke-width="1.5"></path>
        <path d="M461.73 43.15L461.73 43.15" stroke="rgba(169, 169, 169, 0.17)" stroke-width="1.5"></path>
        <path d="M461.73 43.15L476.85 82.31" stroke="rgba(169, 169, 169, 0.17)" stroke-width="1.5"></path>
        <path d="M461.73 43.15L516.11 85.98" stroke="rgba(169, 169, 169, 0.17)" stroke-width="1.5"></path>
        <path d="M461.73 43.15L401.56 93.53" stroke="rgba(169, 169, 169, 0.17)" stroke-width="1.5"></path>
        <path d="M476.85 82.31L476.85 82.31" stroke="rgba(169, 169, 169, 0.17)" stroke-width="1.5"></path>
        <path d="M476.85 82.31L516.11 85.98" stroke="rgba(169, 169, 169, 0.17)" stroke-width="1.5"></path>
        <path d="M476.85 82.31L467.6 153.36" stroke="rgba(169, 169, 169, 0.17)" stroke-width="1.5"></path>
        <path d="M467.6 153.36L467.6 153.36" stroke="rgba(169, 169, 169, 0.17)" stroke-width="1.5"></path>
        <path d="M467.6 153.36L536.38 159.96" stroke="rgba(169, 169, 169, 0.17)" stroke-width="1.5"></path>
        <path d="M468.53 233.53L468.53 233.53" stroke="rgba(169, 169, 169, 0.17)" stroke-width="1.5"></path>
        <path d="M468.53 233.53L543.2 213.07" stroke="rgba(169, 169, 169, 0.17)" stroke-width="1.5"></path>
        <path d="M468.53 233.53L467.6 153.36" stroke="rgba(169, 169, 169, 0.17)" stroke-width="1.5"></path>
        <path d="M468.53 233.53L399.09 164.27" stroke="rgba(169, 169, 169, 0.17)" stroke-width="1.5"></path>
        <path d="M541.84 -22.43L541.84 -22.43" stroke="rgba(169, 169, 169, 0.17)" stroke-width="1.5"></path>
        <path d="M541.84 -22.43L461.73 43.15" stroke="rgba(169, 169, 169, 0.17)" stroke-width="1.5"></path>
        <path d="M516.11 85.98L516.11 85.98" stroke="rgba(169, 169, 169, 0.17)" stroke-width="1.5"></path>
        <path d="M536.38 159.96L536.38 159.96" stroke="rgba(169, 169, 169, 0.17)" stroke-width="1.5"></path>
        <path d="M536.38 159.96L543.2 213.07" stroke="rgba(169, 169, 169, 0.17)" stroke-width="1.5"></path>
        <path d="M536.38 159.96L516.11 85.98" stroke="rgba(169, 169, 169, 0.17)" stroke-width="1.5"></path>
        <path d="M536.38 159.96L476.85 82.31" stroke="rgba(169, 169, 169, 0.17)" stroke-width="1.5"></path>
        <path d="M543.2 213.07L543.2 213.07" stroke="rgba(169, 169, 169, 0.17)" stroke-width="1.5"></path>
        <circle r="5" cx="-43.27" cy="169.43" fill="rgba(169, 169, 169, 0.17)"></circle>
        <circle r="5" cx="-41.35" cy="215.11" fill="rgba(169, 169, 169, 0.17)"></circle>
        <circle r="5" cx="27.57" cy="158.73" fill="rgba(169, 169, 169, 0.17)"></circle>
        <circle r="5" cx="33.95" cy="210.59" fill="rgba(169, 169, 169, 0.17)"></circle>
        <circle r="5" cx="103.35" cy="160.99" fill="rgba(169, 169, 169, 0.17)"></circle>
        <circle r="5" cx="88.21" cy="205.83" fill="rgba(169, 169, 169, 0.17)"></circle>
        <circle r="5" cx="158.13" cy="85.93" fill="rgba(169, 169, 169, 0.17)"></circle>
        <circle r="5" cx="166.98" cy="171.55" fill="rgba(169, 169, 169, 0.17)"></circle>
        <circle r="5" cx="159.88" cy="224.43" fill="rgba(169, 169, 169, 0.17)"></circle>
        <circle r="5" cx="233.13" cy="102.53" fill="rgba(169, 169, 169, 0.17)"></circle>
        <circle r="5" cx="203.66" cy="219.71" fill="rgba(169, 169, 169, 0.17)"></circle>
        <circle r="5" cx="285.53" cy="78.33" fill="rgba(169, 169, 169, 0.17)"></circle>
        <circle r="5" cx="289.1" cy="158.8" fill="rgba(169, 169, 169, 0.17)"></circle>
        <circle r="5" cx="338.34" cy="-46.85" fill="rgba(169, 169, 169, 0.17)"></circle>
        <circle r="5" cx="337.85" cy="34.81" fill="rgba(169, 169, 169, 0.17)"></circle>
        <circle r="5" cx="351.27" cy="83.73" fill="rgba(169, 169, 169, 0.17)"></circle>
        <circle r="5" cx="340.38" cy="140.86" fill="rgba(169, 169, 169, 0.17)"></circle>
        <circle r="5" cx="401.93" cy="23.83" fill="rgba(169, 169, 169, 0.17)"></circle>
        <circle r="5" cx="401.56" cy="93.53" fill="rgba(169, 169, 169, 0.17)"></circle>
        <circle r="5" cx="399.09" cy="164.27" fill="rgba(169, 169, 169, 0.17)"></circle>
        <circle r="5" cx="414.61" cy="217.72" fill="rgba(169, 169, 169, 0.17)"></circle>
        <circle r="5" cx="474.01" cy="-45.18" fill="rgba(169, 169, 169, 0.17)"></circle>
        <circle r="5" cx="461.73" cy="43.15" fill="rgba(169, 169, 169, 0.17)"></circle>
        <circle r="5" cx="476.85" cy="82.31" fill="rgba(169, 169, 169, 0.17)"></circle>
        <circle r="5" cx="467.6" cy="153.36" fill="rgba(169, 169, 169, 0.17)"></circle>
        <circle r="5" cx="468.53" cy="233.53" fill="rgba(169, 169, 169, 0.17)"></circle>
        <circle r="5" cx="541.84" cy="-22.43" fill="rgba(169, 169, 169, 0.17)"></circle>
        <circle r="5" cx="516.11" cy="85.98" fill="rgba(169, 169, 169, 0.17)"></circle>
        <circle r="5" cx="536.38" cy="159.96" fill="rgba(169, 169, 169, 0.17)"></circle>
        <circle r="5" cx="543.2" cy="213.07" fill="rgba(169, 169, 169, 0.17)"></circle>
        <path d="M395.25 204.87L395.25 204.87" stroke="hsla(262.29999999999995, 77.2%, 51.5%, 0.23)" stroke-width="1.5"></path>
        <path d="M395.25 204.87L340.98 215.3" stroke="hsla(262.29999999999995, 77.2%, 51.5%, 0.23)" stroke-width="1.5"></path>
        <path d="M395.25 204.87L409.99 145.82" stroke="hsla(262.29999999999995, 77.2%, 51.5%, 0.23)" stroke-width="1.5"></path>
        <path d="M395.25 204.87L469.15 208.96" stroke="hsla(262.29999999999995, 77.2%, 51.5%, 0.23)" stroke-width="1.5"></path>
        <path d="M395.25 204.87L333.78 163.3" stroke="hsla(262.29999999999995, 77.2%, 51.5%, 0.23)" stroke-width="1.5"></path>
        <path d="M395.25 204.87L474.84 140.88" stroke="hsla(262.29999999999995, 77.2%, 51.5%, 0.23)" stroke-width="1.5"></path>
        <path d="M395.25 204.87L358.35 106.26" stroke="hsla(262.29999999999995, 77.2%, 51.5%, 0.23)" stroke-width="1.5"></path>
        <path d="M457.41 -41.25L457.41 -41.25" stroke="hsla(262.29999999999995, 77.2%, 51.5%, 0.23)" stroke-width="1.5"></path>
        <path d="M457.41 -41.25L524.44 -35.62" stroke="hsla(262.29999999999995, 77.2%, 51.5%, 0.23)" stroke-width="1.5"></path>
        <path d="M457.41 -41.25L459.39 38.21" stroke="hsla(262.29999999999995, 77.2%, 51.5%, 0.23)" stroke-width="1.5"></path>
        <path d="M457.41 -41.25L543.36 15.63" stroke="hsla(262.29999999999995, 77.2%, 51.5%, 0.23)" stroke-width="1.5"></path>
        <path d="M457.41 -41.25L394.83 80.08" stroke="hsla(262.29999999999995, 77.2%, 51.5%, 0.23)" stroke-width="1.5"></path>
        <path d="M457.41 -41.25L473.68 95.78" stroke="hsla(262.29999999999995, 77.2%, 51.5%, 0.23)" stroke-width="1.5"></path>
        <path d="M457.41 -41.25L534.02 105.16" stroke="hsla(262.29999999999995, 77.2%, 51.5%, 0.23)" stroke-width="1.5"></path>
        <path d="M-20.06 144.25L-20.06 144.25" stroke="hsla(262.29999999999995, 77.2%, 51.5%, 0.23)" stroke-width="1.5"></path>
        <path d="M-20.06 144.25L39.67 162.78" stroke="hsla(262.29999999999995, 77.2%, 51.5%, 0.23)" stroke-width="1.5"></path>
        <path d="M-20.06 144.25L-16.39 230" stroke="hsla(262.29999999999995, 77.2%, 51.5%, 0.23)" stroke-width="1.5"></path>
        <path d="M-20.06 144.25L31.18 229.2" stroke="hsla(262.29999999999995, 77.2%, 51.5%, 0.23)" stroke-width="1.5"></path>
        <path d="M-20.06 144.25L103.96 146.47" stroke="hsla(262.29999999999995, 77.2%, 51.5%, 0.23)" stroke-width="1.5"></path>
        <path d="M-20.06 144.25L91.5 234.25" stroke="hsla(262.29999999999995, 77.2%, 51.5%, 0.23)" stroke-width="1.5"></path>
        <path d="M-16.39 230L-16.39 230" stroke="hsla(262.29999999999995, 77.2%, 51.5%, 0.23)" stroke-width="1.5"></path>
        <path d="M-16.39 230L31.18 229.2" stroke="hsla(262.29999999999995, 77.2%, 51.5%, 0.23)" stroke-width="1.5"></path>
        <path d="M-16.39 230L39.67 162.78" stroke="hsla(262.29999999999995, 77.2%, 51.5%, 0.23)" stroke-width="1.5"></path>
        <path d="M-16.39 230L91.5 234.25" stroke="hsla(262.29999999999995, 77.2%, 51.5%, 0.23)" stroke-width="1.5"></path>
        <path d="M-16.39 230L103.96 146.47" stroke="hsla(262.29999999999995, 77.2%, 51.5%, 0.23)" stroke-width="1.5"></path>
        <path d="M39.67 162.78L39.67 162.78" stroke="hsla(262.29999999999995, 77.2%, 51.5%, 0.23)" stroke-width="1.5"></path>
        <path d="M39.67 162.78L103.96 146.47" stroke="hsla(262.29999999999995, 77.2%, 51.5%, 0.23)" stroke-width="1.5"></path>
        <path d="M31.18 229.2L31.18 229.2" stroke="hsla(262.29999999999995, 77.2%, 51.5%, 0.23)" stroke-width="1.5"></path>
        <path d="M31.18 229.2L91.5 234.25" stroke="hsla(262.29999999999995, 77.2%, 51.5%, 0.23)" stroke-width="1.5"></path>
        <path d="M31.18 229.2L39.67 162.78" stroke="hsla(262.29999999999995, 77.2%, 51.5%, 0.23)" stroke-width="1.5"></path>
        <path d="M31.18 229.2L103.96 146.47" stroke="hsla(262.29999999999995, 77.2%, 51.5%, 0.23)" stroke-width="1.5"></path>
        <path d="M103.96 146.47L103.96 146.47" stroke="hsla(262.29999999999995, 77.2%, 51.5%, 0.23)" stroke-width="1.5"></path>
        <path d="M103.96 146.47L154.02 168.23" stroke="hsla(262.29999999999995, 77.2%, 51.5%, 0.23)" stroke-width="1.5"></path>
        <path d="M91.5 234.25L91.5 234.25" stroke="hsla(262.29999999999995, 77.2%, 51.5%, 0.23)" stroke-width="1.5"></path>
        <path d="M91.5 234.25L146.73 228.97" stroke="hsla(262.29999999999995, 77.2%, 51.5%, 0.23)" stroke-width="1.5"></path>
        <path d="M91.5 234.25L39.67 162.78" stroke="hsla(262.29999999999995, 77.2%, 51.5%, 0.23)" stroke-width="1.5"></path>
        <path d="M91.5 234.25L103.96 146.47" stroke="hsla(262.29999999999995, 77.2%, 51.5%, 0.23)" stroke-width="1.5"></path>
        <path d="M91.5 234.25L154.02 168.23" stroke="hsla(262.29999999999995, 77.2%, 51.5%, 0.23)" stroke-width="1.5"></path>
        <path d="M154.02 168.23L154.02 168.23" stroke="hsla(262.29999999999995, 77.2%, 51.5%, 0.23)" stroke-width="1.5"></path>
        <path d="M154.02 168.23L146.73 228.97" stroke="hsla(262.29999999999995, 77.2%, 51.5%, 0.23)" stroke-width="1.5"></path>
        <path d="M146.73 228.97L146.73 228.97" stroke="hsla(262.29999999999995, 77.2%, 51.5%, 0.23)" stroke-width="1.5"></path>
        <path d="M146.73 228.97L227.96 208.18" stroke="hsla(262.29999999999995, 77.2%, 51.5%, 0.23)" stroke-width="1.5"></path>
        <path d="M146.73 228.97L103.96 146.47" stroke="hsla(262.29999999999995, 77.2%, 51.5%, 0.23)" stroke-width="1.5"></path>
        <path d="M146.73 228.97L219.94 155.71" stroke="hsla(262.29999999999995, 77.2%, 51.5%, 0.23)" stroke-width="1.5"></path>
        <path d="M234.22 107.51L234.22 107.51" stroke="hsla(262.29999999999995, 77.2%, 51.5%, 0.23)" stroke-width="1.5"></path>
        <path d="M234.22 107.51L219.94 155.71" stroke="hsla(262.29999999999995, 77.2%, 51.5%, 0.23)" stroke-width="1.5"></path>
        <path d="M234.22 107.51L269.5 151.02" stroke="hsla(262.29999999999995, 77.2%, 51.5%, 0.23)" stroke-width="1.5"></path>
        <path d="M219.94 155.71L219.94 155.71" stroke="hsla(262.29999999999995, 77.2%, 51.5%, 0.23)" stroke-width="1.5"></path>
        <path d="M219.94 155.71L269.5 151.02" stroke="hsla(262.29999999999995, 77.2%, 51.5%, 0.23)" stroke-width="1.5"></path>
        <path d="M227.96 208.18L227.96 208.18" stroke="hsla(262.29999999999995, 77.2%, 51.5%, 0.23)" stroke-width="1.5"></path>
        <path d="M227.96 208.18L219.94 155.71" stroke="hsla(262.29999999999995, 77.2%, 51.5%, 0.23)" stroke-width="1.5"></path>
        <path d="M227.96 208.18L293.76 233.71" stroke="hsla(262.29999999999995, 77.2%, 51.5%, 0.23)" stroke-width="1.5"></path>
        <path d="M227.96 208.18L269.5 151.02" stroke="hsla(262.29999999999995, 77.2%, 51.5%, 0.23)" stroke-width="1.5"></path>
        <path d="M290.17 85.87L290.17 85.87" stroke="hsla(262.29999999999995, 77.2%, 51.5%, 0.23)" stroke-width="1.5"></path>
        <path d="M290.17 85.87L234.22 107.51" stroke="hsla(262.29999999999995, 77.2%, 51.5%, 0.23)" stroke-width="1.5"></path>
        <path d="M290.17 85.87L269.5 151.02" stroke="hsla(262.29999999999995, 77.2%, 51.5%, 0.23)" stroke-width="1.5"></path>
        <path d="M290.17 85.87L358.35 106.26" stroke="hsla(262.29999999999995, 77.2%, 51.5%, 0.23)" stroke-width="1.5"></path>
        <path d="M290.17 85.87L333.78 163.3" stroke="hsla(262.29999999999995, 77.2%, 51.5%, 0.23)" stroke-width="1.5"></path>
        <path d="M269.5 151.02L269.5 151.02" stroke="hsla(262.29999999999995, 77.2%, 51.5%, 0.23)" stroke-width="1.5"></path>
        <path d="M293.76 233.71L293.76 233.71" stroke="hsla(262.29999999999995, 77.2%, 51.5%, 0.23)" stroke-width="1.5"></path>
        <path d="M293.76 233.71L340.98 215.3" stroke="hsla(262.29999999999995, 77.2%, 51.5%, 0.23)" stroke-width="1.5"></path>
        <path d="M293.76 233.71L333.78 163.3" stroke="hsla(262.29999999999995, 77.2%, 51.5%, 0.23)" stroke-width="1.5"></path>
        <path d="M293.76 233.71L269.5 151.02" stroke="hsla(262.29999999999995, 77.2%, 51.5%, 0.23)" stroke-width="1.5"></path>
        <path d="M293.76 233.71L395.25 204.87" stroke="hsla(262.29999999999995, 77.2%, 51.5%, 0.23)" stroke-width="1.5"></path>
        <path d="M293.76 233.71L219.94 155.71" stroke="hsla(262.29999999999995, 77.2%, 51.5%, 0.23)" stroke-width="1.5"></path>
        <path d="M358.35 106.26L358.35 106.26" stroke="hsla(262.29999999999995, 77.2%, 51.5%, 0.23)" stroke-width="1.5"></path>
        <path d="M358.35 106.26L394.83 80.08" stroke="hsla(262.29999999999995, 77.2%, 51.5%, 0.23)" stroke-width="1.5"></path>
        <path d="M358.35 106.26L333.78 163.3" stroke="hsla(262.29999999999995, 77.2%, 51.5%, 0.23)" stroke-width="1.5"></path>
        <path d="M358.35 106.26L409.99 145.82" stroke="hsla(262.29999999999995, 77.2%, 51.5%, 0.23)" stroke-width="1.5"></path>
        <path d="M358.35 106.26L269.5 151.02" stroke="hsla(262.29999999999995, 77.2%, 51.5%, 0.23)" stroke-width="1.5"></path>
        <path d="M333.78 163.3L333.78 163.3" stroke="hsla(262.29999999999995, 77.2%, 51.5%, 0.23)" stroke-width="1.5"></path>
        <path d="M333.78 163.3L340.98 215.3" stroke="hsla(262.29999999999995, 77.2%, 51.5%, 0.23)" stroke-width="1.5"></path>
        <path d="M340.98 215.3L340.98 215.3" stroke="hsla(262.29999999999995, 77.2%, 51.5%, 0.23)" stroke-width="1.5"></path>
        <path d="M340.98 215.3L269.5 151.02" stroke="hsla(262.29999999999995, 77.2%, 51.5%, 0.23)" stroke-width="1.5"></path>
        <path d="M394.83 80.08L394.83 80.08" stroke="hsla(262.29999999999995, 77.2%, 51.5%, 0.23)" stroke-width="1.5"></path>
        <path d="M394.83 80.08L409.99 145.82" stroke="hsla(262.29999999999995, 77.2%, 51.5%, 0.23)" stroke-width="1.5"></path>
        <path d="M409.99 145.82L409.99 145.82" stroke="hsla(262.29999999999995, 77.2%, 51.5%, 0.23)" stroke-width="1.5"></path>
        <path d="M409.99 145.82L474.84 140.88" stroke="hsla(262.29999999999995, 77.2%, 51.5%, 0.23)" stroke-width="1.5"></path>
        <path d="M459.39 38.21L459.39 38.21" stroke="hsla(262.29999999999995, 77.2%, 51.5%, 0.23)" stroke-width="1.5"></path>
        <path d="M459.39 38.21L473.68 95.78" stroke="hsla(262.29999999999995, 77.2%, 51.5%, 0.23)" stroke-width="1.5"></path>
        <path d="M459.39 38.21L394.83 80.08" stroke="hsla(262.29999999999995, 77.2%, 51.5%, 0.23)" stroke-width="1.5"></path>
        <path d="M473.68 95.78L473.68 95.78" stroke="hsla(262.29999999999995, 77.2%, 51.5%, 0.23)" stroke-width="1.5"></path>
        <path d="M473.68 95.78L474.84 140.88" stroke="hsla(262.29999999999995, 77.2%, 51.5%, 0.23)" stroke-width="1.5"></path>
        <path d="M474.84 140.88L474.84 140.88" stroke="hsla(262.29999999999995, 77.2%, 51.5%, 0.23)" stroke-width="1.5"></path>
        <path d="M474.84 140.88L541.1 155.86" stroke="hsla(262.29999999999995, 77.2%, 51.5%, 0.23)" stroke-width="1.5"></path>
        <path d="M474.84 140.88L469.15 208.96" stroke="hsla(262.29999999999995, 77.2%, 51.5%, 0.23)" stroke-width="1.5"></path>
        <path d="M474.84 140.88L534.02 105.16" stroke="hsla(262.29999999999995, 77.2%, 51.5%, 0.23)" stroke-width="1.5"></path>
        <path d="M469.15 208.96L469.15 208.96" stroke="hsla(262.29999999999995, 77.2%, 51.5%, 0.23)" stroke-width="1.5"></path>
        <path d="M469.15 208.96L533.53 211.81" stroke="hsla(262.29999999999995, 77.2%, 51.5%, 0.23)" stroke-width="1.5"></path>
        <path d="M524.44 -35.62L524.44 -35.62" stroke="hsla(262.29999999999995, 77.2%, 51.5%, 0.23)" stroke-width="1.5"></path>
        <path d="M524.44 -35.62L543.36 15.63" stroke="hsla(262.29999999999995, 77.2%, 51.5%, 0.23)" stroke-width="1.5"></path>
        <path d="M524.44 -35.62L459.39 38.21" stroke="hsla(262.29999999999995, 77.2%, 51.5%, 0.23)" stroke-width="1.5"></path>
        <path d="M524.44 -35.62L473.68 95.78" stroke="hsla(262.29999999999995, 77.2%, 51.5%, 0.23)" stroke-width="1.5"></path>
        <path d="M524.44 -35.62L534.02 105.16" stroke="hsla(262.29999999999995, 77.2%, 51.5%, 0.23)" stroke-width="1.5"></path>
        <path d="M524.44 -35.62L394.83 80.08" stroke="hsla(262.29999999999995, 77.2%, 51.5%, 0.23)" stroke-width="1.5"></path>
        <path d="M543.36 15.63L543.36 15.63" stroke="hsla(262.29999999999995, 77.2%, 51.5%, 0.23)" stroke-width="1.5"></path>
        <path d="M543.36 15.63L459.39 38.21" stroke="hsla(262.29999999999995, 77.2%, 51.5%, 0.23)" stroke-width="1.5"></path>
        <path d="M543.36 15.63L534.02 105.16" stroke="hsla(262.29999999999995, 77.2%, 51.5%, 0.23)" stroke-width="1.5"></path>
        <path d="M534.02 105.16L534.02 105.16" stroke="hsla(262.29999999999995, 77.2%, 51.5%, 0.23)" stroke-width="1.5"></path>
        <path d="M534.02 105.16L541.1 155.86" stroke="hsla(262.29999999999995, 77.2%, 51.5%, 0.23)" stroke-width="1.5"></path>
        <path d="M534.02 105.16L473.68 95.78" stroke="hsla(262.29999999999995, 77.2%, 51.5%, 0.23)" stroke-width="1.5"></path>
        <path d="M541.1 155.86L541.1 155.86" stroke="hsla(262.29999999999995, 77.2%, 51.5%, 0.23)" stroke-width="1.5"></path>
        <path d="M541.1 155.86L533.53 211.81" stroke="hsla(262.29999999999995, 77.2%, 51.5%, 0.23)" stroke-width="1.5"></path>
        <path d="M541.1 155.86L469.15 208.96" stroke="hsla(262.29999999999995, 77.2%, 51.5%, 0.23)" stroke-width="1.5"></path>
        <path d="M541.1 155.86L473.68 95.78" stroke="hsla(262.29999999999995, 77.2%, 51.5%, 0.23)" stroke-width="1.5"></path>
        <path d="M541.1 155.86L409.99 145.82" stroke="hsla(262.29999999999995, 77.2%, 51.5%, 0.23)" stroke-width="1.5"></path>
        <path d="M533.53 211.81L533.53 211.81" stroke="hsla(262.29999999999995, 77.2%, 51.5%, 0.23)" stroke-width="1.5"></path>
        <path d="M533.53 211.81L474.84 140.88" stroke="hsla(262.29999999999995, 77.2%, 51.5%, 0.23)" stroke-width="1.5"></path>
        <path d="M533.53 211.81L534.02 105.16" stroke="hsla(262.29999999999995, 77.2%, 51.5%, 0.23)" stroke-width="1.5"></path>
        <path d="M533.53 211.81L473.68 95.78" stroke="hsla(262.29999999999995, 77.2%, 51.5%, 0.23)" stroke-width="1.5"></path>
        <path d="M533.53 211.81L395.25 204.87" stroke="hsla(262.29999999999995, 77.2%, 51.5%, 0.23)" stroke-width="1.5"></path>
        <circle r="25" cx="395.25" cy="204.87" fill="url(#SvgjsRadialGradient1073)"></circle>
        <circle r="25" cx="457.41" cy="-41.25" fill="url(#SvgjsRadialGradient1073)"></circle>
        <circle r="5" cx="-20.06" cy="144.25" fill="rgba(235, 228, 246, 0.615)"></circle>
        <circle r="5" cx="-16.39" cy="230" fill="rgba(235, 228, 246, 0.615)"></circle>
        <circle r="5" cx="39.67" cy="162.78" fill="rgba(235, 228, 246, 0.615)"></circle>
        <circle r="5" cx="31.18" cy="229.2" fill="rgba(235, 228, 246, 0.615)"></circle>
        <circle r="5" cx="103.96" cy="146.47" fill="rgba(235, 228, 246, 0.615)"></circle>
        <circle r="5" cx="91.5" cy="234.25" fill="rgba(235, 228, 246, 0.615)"></circle>
        <circle r="5" cx="154.02" cy="168.23" fill="rgba(235, 228, 246, 0.615)"></circle>
        <circle r="5" cx="146.73" cy="228.97" fill="rgba(235, 228, 246, 0.615)"></circle>
        <circle r="5" cx="234.22" cy="107.51" fill="rgba(235, 228, 246, 0.615)"></circle>
        <circle r="5" cx="219.94" cy="155.71" fill="rgba(235, 228, 246, 0.615)"></circle>
        <circle r="5" cx="227.96" cy="208.18" fill="rgba(235, 228, 246, 0.615)"></circle>
        <circle r="5" cx="290.17" cy="85.87" fill="rgba(235, 228, 246, 0.615)"></circle>
        <circle r="5" cx="269.5" cy="151.02" fill="rgba(235, 228, 246, 0.615)"></circle>
        <circle r="5" cx="293.76" cy="233.71" fill="rgba(235, 228, 246, 0.615)"></circle>
        <circle r="5" cx="358.35" cy="106.26" fill="rgba(235, 228, 246, 0.615)"></circle>
        <circle r="5" cx="333.78" cy="163.3" fill="rgba(235, 228, 246, 0.615)"></circle>
        <circle r="5" cx="340.98" cy="215.3" fill="rgba(235, 228, 246, 0.615)"></circle>
        <circle r="5" cx="394.83" cy="80.08" fill="rgba(235, 228, 246, 0.615)"></circle>
        <circle r="5" cx="409.99" cy="145.82" fill="rgba(235, 228, 246, 0.615)"></circle>
        <circle r="5" cx="459.39" cy="38.21" fill="rgba(235, 228, 246, 0.615)"></circle>
        <circle r="5" cx="473.68" cy="95.78" fill="rgba(235, 228, 246, 0.615)"></circle>
        <circle r="5" cx="474.84" cy="140.88" fill="rgba(235, 228, 246, 0.615)"></circle>
        <circle r="5" cx="469.15" cy="208.96" fill="rgba(235, 228, 246, 0.615)"></circle>
        <circle r="5" cx="524.44" cy="-35.62" fill="rgba(235, 228, 246, 0.615)"></circle>
        <circle r="5" cx="543.36" cy="15.63" fill="rgba(235, 228, 246, 0.615)"></circle>
        <circle r="5" cx="534.02" cy="105.16" fill="rgba(235, 228, 246, 0.615)"></circle>
        <circle r="5" cx="541.1" cy="155.86" fill="rgba(235, 228, 246, 0.615)"></circle>
        <circle r="5" cx="533.53" cy="211.81" fill="rgba(235, 228, 246, 0.615)"></circle>
    </g>
    <defs>
        <mask id="SvgjsMask1072">
            <rect width="500" height="150" fill="#ffffff"></rect>
        </mask>
        <radialGradient id="SvgjsRadialGradient1073">
            <stop stop-color="#ffffff" offset="0.1"></stop>
            <stop stop-color="rgba(81, 23, 179, 0.23)" offset="0.2"></stop>
            <stop stop-color="rgba(81, 23, 179, 0)" offset="1"></stop>
        </radialGradient>
    </defs>
</svg>