<svg xmlns="http://www.w3.org/2000/svg" version="1.1" xmlns:xlink="http://www.w3.org/1999/xlink" xmlns:svgjs="http://svgjs.com/svgjs" width="512" height="512" x="0" y="0" viewBox="0 0 64 64" style="enable-background:new 0 0 512 512" xml:space="preserve" class=""><g><g xmlns="http://www.w3.org/2000/svg" fill="#c4a2fc"><path d="m54 29h8v18.08h-8z" fill="#4e00ca" data-original="#c4a2fc" class=""></path><path d="m32 23h30v4h-30z" fill="#4e00ca" data-original="#c4a2fc" class=""></path><path d="m60.952 51.358a2.994 2.994 0 0 0 1.048-2.278h-30a2.994 2.994 0 0 0 1.048 2.278l6.582 5.642h14.74z" fill="#4e00ca" data-original="#c4a2fc" class=""></path><path d="m41.964 59 4.386 3.759a1 1 0 0 0 1.3 0l4.386-3.759z" fill="#4e00ca" data-original="#c4a2fc" class=""></path><path d="m62 21v-6a3 3 0 0 0 -3-3h-24a3 3 0 0 0 -3 3v6z" fill="#4e00ca" data-original="#c4a2fc" class=""></path><path d="m32 29h8v18.08h-8z" fill="#4e00ca" data-original="#c4a2fc" class=""></path><path d="m42 29h10v18.08h-10z" fill="#4e00ca" data-original="#c4a2fc" class=""></path></g><path xmlns="http://www.w3.org/2000/svg" d="m41 1h-32a3 3 0 0 0 -3 3v1h-1a3 3 0 0 0 -3 3v40a3 3 0 0 0 3 3h32a3 3 0 0 0 3-3v-1h1a3 3 0 0 0 3-3v-40a3 3 0 0 0 -3-3zm-3 47a1 1 0 0 1 -1 1h-32a1 1 0 0 1 -1-1v-40a1 1 0 0 1 1-1h24v6a3 3 0 0 0 3 3h6zm-7-40.586 6.586 6.586h-5.586a1 1 0 0 1 -1-1zm11 36.586a1 1 0 0 1 -1 1h-1v-30.171a2.983 2.983 0 0 0 -.879-2.122l-6.828-6.828a2.978 2.978 0 0 0 -2.121-.879h-22.172v-1a1 1 0 0 1 1-1h32a1 1 0 0 1 1 1z" fill="#000000" data-original="#151a6a" class=""></path><path xmlns="http://www.w3.org/2000/svg" d="m7.732 20.963a1.292 1.292 0 0 1 1.068 1.118v.919a2.109 2.109 0 0 0 2.2 2 1 1 0 0 0 0-2c-.122 0-.192-.045-.2-.013v-.906a2.971 2.971 0 0 0 -.856-2.065 2.9 2.9 0 0 0 .856-2.044l-.019-.9a.308.308 0 0 1 .219-.072 1 1 0 0 0 0-2 2.109 2.109 0 0 0 -2.2 2v.972a1.241 1.241 0 0 1 -1.047 1.059 1 1 0 0 0 -.021 1.932z" fill="#000000" data-original="#151a6a" class=""></path><path xmlns="http://www.w3.org/2000/svg" d="m15 24a1 1 0 0 0 1 1 2.109 2.109 0 0 0 2.2-2v-.919a1.292 1.292 0 0 1 1.068-1.118 1 1 0 0 0 -.021-1.932 1.241 1.241 0 0 1 -1.047-1.059v-.972a2.109 2.109 0 0 0 -2.2-2 1 1 0 0 0 0 2c.123 0 .193.045.2.013v.959a2.9 2.9 0 0 0 .856 2.044 2.971 2.971 0 0 0 -.856 2.065l.019.848a.308.308 0 0 1 -.219.071 1 1 0 0 0 -1 1z" fill="#000000" data-original="#151a6a" class=""></path><path xmlns="http://www.w3.org/2000/svg" d="m34 31h-26a1 1 0 0 0 0 2h26a1 1 0 0 0 0-2z" fill="#000000" data-original="#151a6a" class=""></path><path xmlns="http://www.w3.org/2000/svg" d="m34 39h-26a1 1 0 0 0 0 2h26a1 1 0 0 0 0-2z" fill="#000000" data-original="#151a6a" class=""></path></g></svg>