<svg xmlns="http://www.w3.org/2000/svg" version="1.1" xmlns:xlink="http://www.w3.org/1999/xlink" xmlns:svgjs="http://svgjs.com/svgjs" width="512" height="512" x="0" y="0" viewBox="0 0 60 60" style="enable-background:new 0 0 512 512" xml:space="preserve" class=""><g><g xmlns="http://www.w3.org/2000/svg" id="003---Online-Game-Development"><path id="Path" d="m51 40c.5522847 0 1-.4477153 1-1v-1c0-.5522847-.4477153-1-1-1s-1 .4477153-1 1v1c0 .5522847.4477153 1 1 1z" fill="#000000" data-original="#000000" class=""></path><path id="Path" d="m49 40h-1c-.5522847 0-1 .4477153-1 1s.4477153 1 1 1h1c.5522847 0 1-.4477153 1-1s-.4477153-1-1-1z" fill="#000000" data-original="#000000" class=""></path><path id="Path" d="m51 42c-.5522847 0-1 .4477153-1 1v1c0 .5522847.4477153 1 1 1s1-.4477153 1-1v-1c0-.5522847-.4477153-1-1-1z" fill="#000000" data-original="#000000" class=""></path><path id="Path" d="m55 41c0-.5522847-.4477153-1-1-1h-1c-.5522847 0-1 .4477153-1 1s.4477153 1 1 1h1c.5522847 0 1-.4477153 1-1z" fill="#000000" data-original="#000000" class=""></path><path id="Path" d="m34 40h-2v-2c0-.5522847-.4477153-1-1-1s-1 .4477153-1 1v2h-2c-.5522847 0-1 .4477153-1 1s.4477153 1 1 1h2v2c0 .5522847.4477153 1 1 1s1-.4477153 1-1v-2h2c.5522847 0 1-.4477153 1-1s-.4477153-1-1-1z" fill="#000000" data-original="#000000" class=""></path><path id="Path" d="m39 44h-1c-.5522847 0-1 .4477153-1 1s.4477153 1 1 1h1c.5522847 0 1-.4477153 1-1s-.4477153-1-1-1z" fill="#000000" data-original="#000000" class=""></path><path id="Path" d="m44 44h-1c-.5522847 0-1 .4477153-1 1s.4477153 1 1 1h1c.5522847 0 1-.4477153 1-1s-.4477153-1-1-1z" fill="#000000" data-original="#000000" class=""></path><path id="Shape" d="m59.981 40.908c-.132045-4.5072275-3.5113379-8.2544699-7.981-8.85v-27.058c-.0033061-2.76005315-2.2399468-4.99669388-5-5h-42c-2.76005315.00330612-4.99669388 2.23994685-5 5v45c.00330612 2.7600532 2.23994685 4.9966939 5 5h17.04c.1885414 2.8233472 2.5403951 5.0131551 5.37 5 1.9599175-.0033203 3.7657152-1.0633282 4.724-2.773l1.24-2.227h13.626c.5072958-.0027488 1.0111637-.0833541 1.494-.239l1.374 2.468c1.2005815 2.1508008 3.7026834 3.2188288 6.0863527 2.5979738 2.3836692-.620855 4.0468364-2.773777 4.0456473-5.2369738v-13.3c0-.056-.007-.11-.008-.165s.008-.084.008-.125c-.0047911-.0309651-.0111324-.0616703-.019-.092zm-54.981-38.908h42c1.6568542 0 3 1.34314575 3 3v3h-48v-3c0-1.65685425 1.34314575-3 3-3zm-3 48v-40h48v22.056c-2.1997209.2392647-4.2316336 1.2887297-5.7 2.944h-6.59c-1.7222172-1.9289705-4.1921798-3.0221968-6.778-3-4.8649066.129057-8.7783968 4.042108-8.908 8.907 0 .032-.019.06-.019.093s.008.082.008.123c0 .056-.008.111-.008.167v11.71h-17.005c-1.65685425 0-3-1.3431458-3-3zm45 3h-12.513l1.385-2.486c.1762612-.3169654.5103225-.5136522.873-.514h8.51c.3626775.0003478.6967388.1970346.873.514l1.351 2.425c-.1577389.0333444-.3179385.0537456-.479.061zm11 1.59c-.0003592 1.5518403-1.0484695 2.9077296-2.5501668 3.2990269s-3.0782123-.2806935-3.8358332-1.6350269l-3.738-6.713c-.5293924-.9511357-1.5324617-1.5408839-2.621-1.541h-8.51c-1.0885383.0001161-2.0916076.5898643-2.621 1.541l-3.736 6.71c-.7553587 1.3577139-2.3331901 2.0329236-3.8368798 1.641936s-2.5527811-1.7492465-2.5511202-3.302936v-7.956c.6918364.870753 1.5395842 1.6052417 2.5 2.166.4759933.2561528 1.0693836.0876904 1.3397768-.3803603s.1199053-1.0662521-.3397768-1.3506397c-2.1230542-1.2338154-3.4475192-3.4868847-3.493-5.942.0153471-3.855534 3.0813223-7.0063927 6.935-7.127h.057998c3.1870629.0151594 5.9669956 2.1680797 6.779002 5.25.1139767.4414298.5120932.7498879.968.75.0852897.0001508.1702698-.0102618.253-.031.2571007-.0661312.4773552-.2317783.612224-.4604364.1348689-.228658.1732827-.5015597.106776-.7585636-.1614466-.6048976-.3853156-1.1913806-.668-1.75h3.9c-.2819968.5586987-.5051946 1.1451793-.666 1.75-.1387596.5340016.1811942 1.0794892.715 1.219.0820811.020575.1663794.0309863.251.031.4559068-.0001121.8540233-.3085702.968-.75.8121993-3.0826355 3.5931941-5.2357431 6.780998-5.25h.058002c3.8511964.1205348 6.915969 3.26796 6.934 7.121-.0445325 2.4553814-1.368742 4.7090403-3.492 5.943-.3209394.1727115-.5225002.5063525-.5260692.8707953-.003569.3644429.1914191.7019673.5089145.880931s.7072132.1710225 1.0171547-.0207263c.9599854-.5592746 1.8077043-1.2920427 2.5-2.161z" fill="#000000" data-original="#000000" class=""></path><path id="Path" d="m5 6h1c.55228475 0 1-.44771525 1-1s-.44771525-1-1-1h-1c-.55228475 0-1 .44771525-1 1s.44771525 1 1 1z" fill="#000000" data-original="#000000" class=""></path><path id="Path" d="m10 6h1c.5522847 0 1-.44771525 1-1s-.4477153-1-1-1h-1c-.55228475 0-1 .44771525-1 1s.44771525 1 1 1z" fill="#000000" data-original="#000000" class=""></path><path id="Path" d="m15 6h1c.5522847 0 1-.44771525 1-1s-.4477153-1-1-1h-1c-.5522847 0-1 .44771525-1 1s.4477153 1 1 1z" fill="#000000" data-original="#000000" class=""></path><path id="Path" d="m42 6h5c.5522847 0 1-.44771525 1-1s-.4477153-1-1-1h-5c-.5522847 0-1 .44771525-1 1s.4477153 1 1 1z" fill="#000000" data-original="#000000" class=""></path><path id="Path" d="m19.707 14.293c-.3904999-.3903819-1.0235001-.3903819-1.414 0l-7 7c-.3903819.3904999-.3903819 1.0235001 0 1.414l7 7c.3923789.3789722 1.0160848.3735524 1.4018186-.0121814s.3911536-1.0094397.0121814-1.4018186l-6.293-6.293 6.293-6.293c.3903819-.3904999.3903819-1.0235001 0-1.414z" fill="#000000" data-original="#000000" class=""></path><path id="Path" d="m32.293 29.707c.3904999.3903819 1.0235001.3903819 1.414 0l7-7c.3903819-.3904999.3903819-1.0235001 0-1.414l-7-7c-.3923789-.3789722-1.0160848-.3735524-1.4018186.0121814s-.3911536 1.0094397-.0121814 1.4018186l6.293 6.293-6.293 6.293c-.3903819.3904999-.3903819 1.0235001 0 1.414z" fill="#000000" data-original="#000000" class=""></path><path id="Path" d="m22.606 29.919c.5075504.2175395 1.0953574-.0174937 1.313-.525l6-14c.2082516-.505513-.0280796-1.0845653-.5305742-1.2999982-.5024946-.215433-1.0848553.012624-1.3074258.5119982l-6 14c-.2175395.5075504.0174937 1.0953574.525 1.313z" fill="#000000" data-original="#000000" class=""></path></g></g></svg>