<svg xmlns="http://www.w3.org/2000/svg" version="1.1" xmlns:xlink="http://www.w3.org/1999/xlink" xmlns:svgjs="http://svgjs.com/svgjs" width="512" height="512" x="0" y="0" viewBox="0 0 512 512.00001" style="enable-background:new 0 0 512 512" xml:space="preserve" class=""><g><path xmlns="http://www.w3.org/2000/svg" d="m506.078125 254.195312c-3.898437 3.875-9 5.8125-14.09375 5.8125-5.140625 0-10.277344-1.96875-14.1875-5.902343l-15.8125-15.917969v143.816406c0 11.046875-8.953125 20-20 20-11.042969 0-19.996094-8.953125-19.996094-20v-184.078125l-152.105469-153.105469c-7.464843-6.394531-18.453124-6.417968-25.945312-.054687l-153.941406 153.640625v183.597656c0 11.046875-8.953125 20-19.996094 20-11.046875 0-20-8.953125-20-20v-143.679687l-15.871094 15.839843c-7.820312 7.800782-20.480468 7.792969-28.285156-.027343-7.800781-7.816407-7.789062-20.480469.027344-28.285157l210.285156-209.867187c.269531-.269531.542969-.527344.828125-.78125 22.839844-20.335937 57.226563-20.261719 79.980469.167969.28125.253906.558594.515625.824218.785156l208.382813 209.757812c7.785156 7.835938 7.742187 20.496094-.09375 28.28125zm-213.085937-30.1875c0-19.328124-15.671876-34.996093-35-34.996093-19.328126 0-35 15.667969-35 34.996093 0 11.890626 5.9375 22.390626 15 28.71875v195.558594c-9.0625 6.324219-15 16.824219-15 28.714844 0 19.332031 15.671874 35 35 35 19.328124 0 35-15.667969 35-35 0-11.890625-5.9375-22.390625-15-28.714844v-195.558594c9.0625-6.328124 15-16.828124 15-28.71875zm-126.996094 16c-19.332032 0-35 15.671876-35 35 0 11.890626 5.9375 22.390626 15 28.714844v115.996094l-24.847656 24.847656c-4.0625-1.648437-8.5-2.5625-13.152344-2.5625-19.328125 0-35 15.667969-35 34.996094 0 19.332031 15.671875 35 35 35 18.53125 0 33.6875-14.40625 34.910156-32.625l37.230469-37.230469c3.75-3.75 5.859375-8.835937 5.859375-14.140625v-124.28125c9.0625-6.324218 14.996094-16.824218 14.996094-28.714844 0-19.328124-15.667969-35-34.996094-35zm235.992187 201.996094c-2.402343 0-4.746093.242188-7.011719.703125l-24.988281-24.988281v-84.996094c9.0625-6.324218 15-16.824218 15-28.714844 0-19.332031-15.671875-35-35-35s-35 15.667969-35 35c0 11.890626 5.9375 22.390626 15 28.714844v93.28125c0 5.304688 2.109375 10.390625 5.859375 14.140625l31.542969 31.542969c-.265625 1.734375-.402344 3.507812-.402344 5.3125 0 19.332031 15.667969 35 35 35 19.328125 0 34.996094-15.667969 34.996094-35 0-19.328125-15.667969-34.996094-34.996094-34.996094zm0 0" fill="#000000" data-original="#000000" class=""></path></g></svg>