<svg xmlns="http://www.w3.org/2000/svg" version="1.1" xmlns:xlink="http://www.w3.org/1999/xlink" xmlns:svgjs="http://svgjs.com/svgjs" width="512" height="512" x="0" y="0" viewBox="0 0 512 512" style="enable-background:new 0 0 512 512" xml:space="preserve" class=""><g><linearGradient xmlns="http://www.w3.org/2000/svg" id="SVGID_1_" gradientUnits="userSpaceOnUse" x1="256" x2="256" y1="481" y2="31"><stop stop-opacity="1" stop-color="#ad79ff" offset="0"></stop><stop stop-opacity="1" stop-color="#fff1ff" offset="1"></stop></linearGradient><linearGradient xmlns="http://www.w3.org/2000/svg" id="SVGID_00000144308551278413214780000012982732230539179687_" gradientUnits="userSpaceOnUse" x1="256" x2="256" y1="421" y2="91"><stop stop-opacity="1" stop-color="#4e00ca" offset="0"></stop><stop stop-opacity="1" stop-color="#a065ff" offset="1"></stop></linearGradient><g xmlns="http://www.w3.org/2000/svg"><g><g><path d="m286 391h-60c-8.291 0-15 6.709-15 15v30c0 24.814 20.186 45 45 45s45-20.186 45-45v-30c0-8.291-6.709-15-15-15zm-205.316-330.469c-6.328-5.288-15.791-4.482-21.123 1.86-38.409 45.777-59.561 103.887-59.561 163.609 0 8.291 6.709 15 15 15s15-6.709 15-15c0-52.676 18.662-103.945 52.529-144.331 5.332-6.343 4.512-15.806-1.845-21.138zm371.755 1.861c-5.332-6.372-14.795-7.192-21.123-1.86-6.357 5.332-7.178 14.795-1.846 21.138 33.868 40.385 52.53 91.654 52.53 144.33 0 8.291 6.709 15 15 15s15-6.709 15-15c0-59.722-21.152-117.832-59.561-163.608zm-329.48 40.503c-6.475-5.127-15.908-4.058-21.064 2.461-27.393 34.687-41.895 76.406-41.895 120.644 0 8.291 6.709 15 15 15s15-6.709 15-15c0-37.412 12.246-72.7 35.449-102.041 5.127-6.504 4.014-15.938-2.49-21.064zm266.082 0c-6.504 5.127-7.617 14.561-2.49 21.064 23.203 29.341 35.449 64.629 35.449 102.041 0 8.291 6.709 15 15 15s15-6.709 15-15c0-44.238-14.502-85.957-41.895-120.645-5.126-6.518-14.56-7.631-21.064-2.46zm-133.041-71.895c-24.814 0-45 20.186-45 45s20.186 45 45 45 45-20.186 45-45-20.186-45-45-45zm0 60c-8.262 0-15-6.724-15-15s6.738-15 15-15 15 6.724 15 15-6.738 15-15 15z" fill="url(#SVGID_1_)" data-original="url(#SVGID_1_)"></path></g></g><g><g><path d="m436 391c-24.814 0-45-20.186-45-45v-120c0-74.443-60.557-135-135-135-74.29 0-135 60.257-135 135v120c0 24.814-20.186 45-45 45-8.291 0-15 6.709-15 15s6.709 15 15 15h360c8.291 0 15-6.709 15-15s-6.709-15-15-15z" fill="url(#SVGID_00000144308551278413214780000012982732230539179687_)" data-original="url(#SVGID_00000144308551278413214780000012982732230539179687_)"></path></g></g></g></g></svg>